<?xml version="1.0" encoding="utf-8"?>
<svg viewBox="0.037 0.39 824.934 10" height="20px" xmlns="http://www.w3.org/2000/svg">
  <defs>
    <style>
      .cls-1 {
        fill: #fff;
        fill-rule: evenodd;
      }
    </style>
  </defs>
  <rect x="0.513" y="0.485" width="824.198" height="217.641" style="fill: rgb(243, 18, 21);" transform="matrix(1, 0, -0.00338, 1, 0.261454, -0.095153)"/>
  <path id="m" class="cls-1" d="M 542.939 195.906 L 599.206 195.906 L 614.544 127.364 C 616.463 118.438 619.542 113.078 623.782 111.284 C 628.022 109.49 631.555 108.593 634.382 108.593 C 637.264 108.609 640.089 109.399 642.56 110.882 C 645.185 112.409 646.498 114.926 646.497 118.435 C 646.318 121.446 645.861 124.434 645.133 127.361 L 629.819 195.906 L 686.4 195.906 L 701.115 129.653 C 702.934 121.642 705.484 116.225 708.767 113.401 C 712.219 110.517 716.615 109.008 721.111 109.165 C 729.289 109.165 733.378 112.522 733.378 119.235 C 733.275 121.97 732.92 124.69 732.317 127.36 L 717.003 195.905 L 775.27 195.905 L 791.909 120.722 C 792.735 117 793.192 113.205 793.271 109.393 C 793.271 99.628 789.204 91.866 781.071 86.106 C 772.938 80.346 762.101 77.466 748.561 77.466 C 727.947 77.466 712.69 84.37 702.789 98.179 C 696.11 83.993 683.16 76.9 663.939 76.9 C 643.806 76.9 628.072 83.995 616.739 98.185 L 620.682 80.333 L 568.564 80.333 Z"/>
  <path id="ONLINE" class="cls-1" d="M 288.893 64.066 C 292.824 60.579 295.046 55.555 294.98 50.3 C 295.067 46.24 293.15 42.397 289.855 40.023 C 286.439 37.406 282.071 36.098 276.75 36.097 C 270.105 36.097 264.722 37.968 260.602 41.71 C 256.629 45.126 254.368 50.123 254.422 55.362 C 254.242 59.642 256.347 63.697 259.95 66.014 C 263.821 68.545 268.369 69.841 272.993 69.729 C 279.535 69.728 284.835 67.84 288.893 64.066 Z M 267.682 57.375 C 267.782 54.337 268.434 51.343 269.608 48.539 C 270.891 45.211 273.116 43.547 276.284 43.547 C 277.723 43.476 279.14 43.925 280.275 44.813 C 281.323 45.758 281.878 47.132 281.781 48.54 C 281.629 50.396 281.296 52.233 280.787 54.024 C 280.343 56.246 279.422 58.345 278.087 60.176 C 276.843 61.623 274.991 62.401 273.087 62.276 C 269.487 62.276 267.687 60.643 267.687 57.376 L 267.687 57.376 Z M 329.882 36.914 L 327.182 49.054 C 326.752 50.76 326.471 52.5 326.344 54.254 C 326.344 54.567 326.375 55.044 326.438 55.685 C 324.647 51.732 322.538 47.93 320.133 44.318 L 315.477 36.911 L 304.055 36.911 L 296.975 68.903 L 307.3 68.903 L 310.781 53.222 C 311.053 52.084 311.209 50.922 311.247 49.753 C 311.247 49.486 311.226 49.12 311.185 48.653 C 312.22 51.486 313.633 54.167 315.385 56.623 L 323.515 68.906 L 332.937 68.906 L 340.018 36.914 L 329.878 36.914 Z M 355.197 61.214 L 360.575 36.914 L 347.7 36.914 L 340.619 68.906 L 369.594 68.906 L 371.271 61.219 L 355.193 61.219 Z M 381.525 36.914 L 374.445 68.906 L 386.5 68.906 L 393.58 36.914 L 381.521 36.914 Z M 427.075 36.914 L 424.375 49.054 C 423.945 50.76 423.664 52.5 423.537 54.254 C 423.537 54.567 423.568 55.044 423.63 55.685 C 421.841 51.732 419.734 47.931 417.33 44.318 L 412.673 36.911 L 401.249 36.911 L 394.168 68.903 L 404.5 68.903 L 407.981 53.222 C 408.254 52.084 408.41 50.922 408.448 49.753 C 408.448 49.486 408.427 49.12 408.385 48.653 C 409.421 51.486 410.834 54.167 412.585 56.623 L 420.716 68.906 L 430.138 68.906 L 437.218 36.914 L 427.071 36.914 Z M 451.751 61.547 L 452.996 55.875 L 468.246 55.875 L 469.798 48.938 L 454.515 48.938 L 455.615 43.922 L 473.8 43.922 L 475.353 36.914 L 444.888 36.914 L 437.808 68.906 L 469.049 68.906 L 470.695 61.547 L 451.747 61.547 Z"/>
  <path id="cu" class="cls-1" d="M 310.3 167.3 C 298.977 167.3 293.316 161.644 293.317 150.331 C 293.317 142.688 295.339 133.745 299.383 123.502 C 303.427 113.259 310.25 108.137 319.852 108.137 C 331.072 108.137 336.682 114.393 336.683 126.904 L 388.69 122.326 C 388.69 108.823 382.12 97.78 368.979 89.198 C 355.838 80.616 339.817 76.324 320.914 76.323 C 294.835 76.323 273.885 83.272 258.065 97.17 C 242.245 111.068 234.335 127.065 234.336 145.162 C 234.336 161.045 241.033 174.045 254.426 184.162 C 267.819 194.279 285.08 199.338 306.207 199.339 C 320.552 199.341 334.744 196.401 347.907 190.699 C 361.349 184.94 372.216 174.584 380.507 159.631 L 334.262 151.048 C 329.407 161.883 321.42 167.3 310.3 167.3 L 310.3 167.3 Z M 498.715 80.33 L 486 137.547 C 481.752 156.772 473.005 166.384 459.759 166.382 C 452.782 166.382 449.294 163.518 449.295 157.789 C 449.295 156.416 449.952 152.64 451.266 146.46 L 465.966 80.328 L 407.238 80.328 L 391.317 152.65 C 389.294 161.576 388.283 167.756 388.285 171.189 C 388.285 179.047 392.002 185.647 399.437 190.989 C 406.872 196.331 417.113 199.001 430.16 199 C 451.906 199 468.899 190.726 481.139 174.177 L 476.124 195.91 L 531.148 195.91 L 556.8 80.328 L 498.716 80.328 Z"/>
  <path id="S" class="cls-1" d="M 201.708 37.475 C 185.078 30.06 165.101 26.352 141.777 26.351 C 111.216 26.351 88.512 31.625 73.665 42.172 C 58.818 52.719 51.394 65.608 51.393 80.838 C 51.249 89.233 54.158 97.395 59.578 103.807 C 65.054 110.337 72.074 115.397 80 118.528 C 88.16 121.827 102.385 126.299 122.676 131.945 C 137.676 136.12 146.068 138.554 147.851 139.245 C 149.738 140.009 151.447 141.154 152.872 142.607 C 154.368 143.996 155.218 145.945 155.221 147.986 C 155.221 151.164 153.196 153.997 149.147 156.486 C 145.098 158.975 138.537 160.217 129.466 160.214 C 107.761 160.214 94.155 154.306 88.648 142.489 L 24.829 151.9 C 32.171 167.629 45.156 179.324 63.785 186.984 C 82.414 194.644 104.254 198.474 129.305 198.475 C 158.568 198.475 181.974 192.979 199.523 181.986 C 217.072 170.993 225.845 157.068 225.844 140.21 C 225.849 133.797 224.05 127.511 220.653 122.072 C 217.193 116.413 211.518 111.201 203.628 106.436 C 195.649 101.636 187.03 97.989 178.028 95.606 L 142.9 86.147 C 133.401 83.61 127.626 81.486 125.576 79.773 C 123.655 78.325 122.518 76.065 122.5 73.66 C 122.5 66.327 129.789 62.66 144.367 62.66 C 151.715 62.574 158.999 64.032 165.748 66.939 C 172.227 69.793 176.277 73.705 177.897 78.675 L 234.751 67.795 C 229.351 54.998 218.337 44.892 201.708 37.475 Z"/>
</svg>