<svg xmlns="http://www.w3.org/2000/svg" width="771" height="176" viewBox="0 0 771 176">
  <defs>
    <style>
      .cls-1 {
        fill: #fff;
        fill-rule: evenodd;
      }
    </style>
  </defs>
  <path id="m" class="cls-1" d="M518.939,171.906h56.267l15.338-68.542q2.878-13.389,9.238-16.08t10.6-2.691a16.065,16.065,0,0,1,8.178,2.289q3.938,2.29,3.937,7.553a48.994,48.994,0,0,1-1.364,8.926l-15.314,68.545H662.4l14.715-66.253q2.728-12.016,7.652-16.252a18.26,18.26,0,0,1,12.344-4.236q12.267,0,12.267,10.07a44.443,44.443,0,0,1-1.061,8.125l-15.314,68.545H751.27l16.639-75.183a57.832,57.832,0,0,0,1.362-11.329q0-14.647-12.2-23.287t-32.51-8.64q-30.921,0-45.772,20.713Q668.771,52.9,639.939,52.9q-30.2,0-47.2,21.285l3.943-17.852H544.564Z"/>
  <path id="ONLINE" class="cls-1" d="M264.893,40.066A18.1,18.1,0,0,0,270.98,26.3a12.341,12.341,0,0,0-5.125-10.277q-5.124-3.925-13.105-3.926-9.968,0-16.148,5.613a17.763,17.763,0,0,0-6.18,13.652,12.063,12.063,0,0,0,5.528,10.652,22.822,22.822,0,0,0,13.043,3.715Q258.806,45.727,264.893,40.066Zm-21.211-6.691a25.006,25.006,0,0,1,1.926-8.836q1.924-4.992,6.676-4.992a6,6,0,0,1,3.991,1.266,4.592,4.592,0,0,1,1.506,3.727,28.634,28.634,0,0,1-.994,5.484,15.656,15.656,0,0,1-2.7,6.152,6.072,6.072,0,0,1-5,2.1q-5.4,0-5.4-4.9h0Zm62.2-20.461-2.7,12.14a30.212,30.212,0,0,0-.838,5.2q0,0.469.094,1.431a80.331,80.331,0,0,0-6.305-11.367l-4.656-7.407H280.055l-7.08,31.992H283.3l3.481-15.681a17.329,17.329,0,0,0,.466-3.469q0-.4-0.062-1.1a33.562,33.562,0,0,0,4.2,7.97l8.13,12.283h9.422l7.081-31.992H305.878Zm25.315,24.3,5.378-24.3H323.7l-7.081,31.992h28.975l1.677-7.687H331.193Zm26.328-24.3-7.08,31.992H362.5l7.08-31.992H357.521Zm45.55,0-2.7,12.14a30.212,30.212,0,0,0-.838,5.2q0,0.469.093,1.431a80.3,80.3,0,0,0-6.3-11.367l-4.657-7.407H377.249l-7.081,31.992H380.5l3.481-15.681a17.27,17.27,0,0,0,.467-3.469q0-.4-0.063-1.1a33.637,33.637,0,0,0,4.2,7.97l8.131,12.283h9.422l7.08-31.992H403.071Zm24.676,24.633,1.245-5.672h15.25l1.552-6.937H430.515l1.1-5.016H449.8l1.553-7.008H420.888l-7.08,31.992h31.241l1.646-7.359H427.747Z"/>
  <path id="cu" class="cls-1" d="M286.3,143.3q-16.984,0-16.983-16.969,0-11.464,6.066-26.829t20.469-15.365q16.83,0,16.831,18.767l52.007-4.578q0-20.255-19.711-33.128T296.914,52.323q-39.119,0-62.849,20.847t-23.729,47.992q0,23.824,20.09,39t51.781,15.177a104.868,104.868,0,0,0,41.7-8.64q20.163-8.639,32.6-31.068l-46.245-8.583Q302.98,143.3,286.3,143.3h0Zm188.415-86.97L462,113.547q-6.372,28.838-26.241,28.835-10.465,0-10.464-8.593,0-2.059,1.971-11.329l14.7-66.132H383.238L367.317,128.65q-3.035,13.389-3.032,18.539,0,11.787,11.152,19.8T406.16,175q32.619,0,50.979-24.823l-5.015,21.733h55.024L532.8,56.328H474.716Z"/>
  <path id="S" class="cls-1" d="M177.708,13.475Q152.763,2.353,117.777,2.351q-45.842,0-68.112,15.821T27.393,56.838a34.66,34.66,0,0,0,8.185,22.969A51.2,51.2,0,0,0,56,94.528q12.24,4.948,42.676,13.417,22.5,6.263,25.175,7.3a14.828,14.828,0,0,1,5.021,3.362,7.355,7.355,0,0,1,2.349,5.379q0,4.767-6.074,8.5t-19.681,3.728q-32.557,0-40.818-17.725L0.829,127.9q11.013,23.594,38.956,35.084t65.52,11.491q43.895,0,70.218-16.489t26.321-41.776a34.185,34.185,0,0,0-5.191-18.138q-5.19-8.489-17.025-15.636a98.634,98.634,0,0,0-25.6-10.83L118.9,62.147q-14.249-3.805-17.324-6.374A7.729,7.729,0,0,1,98.5,49.66q0-11,21.867-11a52.494,52.494,0,0,1,21.381,4.279q9.719,4.281,12.149,11.736l56.854-10.88Q202.651,24.6,177.708,13.475Z"/>
</svg>
